<?xml version="1.0" encoding="UTF-8"?>
<svg xmlns="http://www.w3.org/2000/svg" xmlns:xlink="http://www.w3.org/1999/xlink" width="30px" height="30px" viewBox="0 0 30 30" version="1.1">
<g id="surface1">
<path style=" stroke:none;fill-rule:nonzero;fill:rgb(100%,100%,100%);fill-opacity:1;" d="M 9.75 23.160156 C 10.128906 23.160156 10.488281 23.230469 10.828125 23.371094 C 11.171875 23.511719 11.464844 23.703125 11.714844 23.953125 C 11.964844 24.203125 12.164062 24.5 12.316406 24.839844 C 12.464844 25.179688 12.539062 25.539062 12.539062 25.921875 C 12.539062 26.300781 12.464844 26.660156 12.316406 27 C 12.164062 27.339844 11.964844 27.636719 11.714844 27.886719 C 11.464844 28.136719 11.171875 28.335938 10.828125 28.484375 C 10.488281 28.636719 10.128906 28.710938 9.75 28.710938 C 9.351562 28.710938 8.980469 28.636719 8.640625 28.484375 C 8.300781 28.335938 8.003906 28.136719 7.753906 27.886719 C 7.503906 27.636719 7.304688 27.339844 7.15625 27 C 7.003906 26.660156 6.929688 26.300781 6.929688 25.921875 C 6.929688 25.539062 7.003906 25.179688 7.15625 24.839844 C 7.304688 24.5 7.503906 24.203125 7.753906 23.953125 C 8.003906 23.703125 8.300781 23.511719 8.640625 23.371094 C 8.980469 23.230469 9.351562 23.160156 9.75 23.160156 Z M 22.230469 23.21875 C 22.609375 23.21875 22.976562 23.289062 23.324219 23.429688 C 23.675781 23.570312 23.976562 23.765625 24.226562 24.015625 C 24.476562 24.265625 24.675781 24.558594 24.824219 24.898438 C 24.976562 25.238281 25.050781 25.601562 25.050781 25.980469 C 25.050781 26.359375 24.976562 26.71875 24.824219 27.058594 C 24.675781 27.398438 24.476562 27.695312 24.226562 27.945312 C 23.976562 28.195312 23.675781 28.394531 23.324219 28.546875 C 22.976562 28.695312 22.609375 28.769531 22.230469 28.769531 C 21.851562 28.769531 21.488281 28.695312 21.148438 28.546875 C 20.808594 28.394531 20.515625 28.195312 20.265625 27.945312 C 20.015625 27.695312 19.816406 27.398438 19.664062 27.058594 C 19.515625 26.71875 19.441406 26.359375 19.441406 25.980469 C 19.441406 25.601562 19.515625 25.238281 19.664062 24.898438 C 19.816406 24.558594 20.015625 24.265625 20.265625 24.015625 C 20.515625 23.765625 20.808594 23.570312 21.148438 23.429688 C 21.488281 23.289062 21.851562 23.21875 22.230469 23.21875 Z M 27.269531 6.179688 C 27.828125 6.179688 28.265625 6.253906 28.574219 6.40625 C 28.886719 6.554688 29.105469 6.738281 29.234375 6.960938 C 29.363281 7.179688 29.425781 7.414062 29.414062 7.664062 C 29.40625 7.914062 29.371094 8.128906 29.308594 8.308594 C 29.25 8.488281 29.121094 8.859375 28.921875 9.421875 C 28.71875 9.980469 28.503906 10.59375 28.273438 11.265625 C 28.046875 11.933594 27.816406 12.601562 27.585938 13.261719 C 27.355469 13.921875 27.171875 14.441406 27.03125 14.820312 C 26.769531 15.621094 26.445312 16.175781 26.054688 16.484375 C 25.664062 16.796875 25.179688 16.949219 24.601562 16.949219 L 8.851562 16.949219 L 9.269531 19.648438 L 24.421875 19.648438 C 25.378906 19.648438 25.859375 20.058594 25.859375 20.878906 C 25.859375 21.28125 25.765625 21.628906 25.574219 21.929688 C 25.386719 22.230469 25.011719 22.371094 24.449219 22.351562 L 8.730469 22.351562 C 8.328125 22.351562 7.996094 22.261719 7.726562 22.078125 C 7.453125 21.898438 7.230469 21.664062 7.050781 21.375 C 6.871094 21.085938 6.726562 20.769531 6.613281 20.429688 C 6.503906 20.089844 6.421875 19.769531 6.359375 19.46875 C 6.339844 19.351562 6.285156 19.058594 6.195312 18.601562 C 6.105469 18.140625 5.996094 17.566406 5.863281 16.875 C 5.734375 16.183594 5.589844 15.414062 5.429688 14.566406 C 5.269531 13.714844 5.109375 12.859375 4.949219 12 C 4.570312 9.980469 4.140625 7.730469 3.660156 5.25 L 1.410156 5.25 C 1.109375 5.25 0.859375 5.175781 0.660156 5.023438 C 0.460938 4.875 0.296875 4.695312 0.164062 4.484375 C 0.0351562 4.273438 -0.0546875 4.050781 -0.105469 3.808594 C -0.15625 3.570312 -0.179688 3.351562 -0.179688 3.148438 C -0.179688 2.75 -0.046875 2.421875 0.226562 2.160156 C 0.496094 1.898438 0.859375 1.78125 1.320312 1.800781 L 4.351562 1.800781 C 4.75 1.800781 5.070312 1.859375 5.308594 1.980469 C 5.550781 2.101562 5.738281 2.25 5.878906 2.429688 C 6.019531 2.609375 6.121094 2.796875 6.179688 2.984375 C 6.238281 3.175781 6.289062 3.339844 6.328125 3.480469 C 6.371094 3.640625 6.410156 3.863281 6.449219 4.15625 C 6.488281 4.445312 6.53125 4.738281 6.570312 5.039062 C 6.628906 5.398438 6.691406 5.78125 6.75 6.179688 Z M 26.160156 8.851562 L 7.378906 8.789062 L 8.429688 14.21875 L 24.121094 14.25 Z M 26.160156 8.851562 "/>
</g>
</svg>
