<?xml version="1.0" encoding="UTF-8"?>
<svg xmlns="http://www.w3.org/2000/svg" xmlns:xlink="http://www.w3.org/1999/xlink" width="60px" height="60px" viewBox="0 0 60 60" version="1.1">
<g id="surface1">
<path style=" stroke:none;fill-rule:nonzero;fill:rgb(25.490198%,27.843139%,32.156864%);fill-opacity:1;" d="M 44.261719 27.21875 C 44.449219 28.207031 44.542969 29.25 44.542969 30.335938 C 44.542969 38.8125 38.871094 44.847656 30.292969 44.847656 C 22.09375 44.847656 15.453125 38.199219 15.453125 30 C 15.453125 21.800781 22.09375 15.152344 30.292969 15.152344 C 34.300781 15.152344 37.652344 16.628906 40.222656 19.019531 L 36.035156 23.210938 L 36.035156 23.199219 C 34.480469 21.714844 32.5 20.957031 30.292969 20.957031 C 25.394531 20.957031 21.417969 25.089844 21.417969 29.988281 C 21.417969 34.886719 25.394531 39.035156 30.292969 39.035156 C 34.742188 39.035156 37.765625 36.492188 38.386719 33.007812 L 30.292969 33.007812 L 30.292969 27.21875 Z M 44.261719 27.21875 "/>
<path style=" stroke:none;fill-rule:nonzero;fill:rgb(25.490198%,27.843139%,32.156864%);fill-opacity:1;" d="M 30 1.875 C 45.503906 1.875 58.125 14.496094 58.125 30 C 58.125 45.503906 45.503906 58.125 30 58.125 C 14.496094 58.125 1.875 45.503906 1.875 30 C 1.875 14.496094 14.496094 1.875 30 1.875 M 30 0 C 13.433594 0 0 13.429688 0 30 C 0 46.570312 13.433594 60 30 60 C 46.566406 60 60 46.570312 60 30 C 60 13.429688 46.570312 0 30 0 Z M 30 0 "/>
</g>
</svg>
