<?xml version="1.0" encoding="UTF-8"?>
<svg xmlns="http://www.w3.org/2000/svg" xmlns:xlink="http://www.w3.org/1999/xlink" width="30px" height="30px" viewBox="0 0 30 30" version="1.1">
<g id="surface1">
<path style=" stroke:none;fill-rule:nonzero;fill:rgb(0%,0%,0%);fill-opacity:1;" d="M 15 0 C 6.714844 0 0 6.714844 0 15 C 0 23.285156 6.714844 30 15 30 C 23.285156 30 30 23.285156 30 15 C 30 6.714844 23.285156 0 15 0 Z M 20.589844 21.214844 C 19.230469 22.464844 17.378906 23.203125 15.164062 23.203125 C 11.960938 23.203125 9.1875 21.363281 7.839844 18.6875 C 7.28125 17.578125 6.964844 16.324219 6.964844 15 C 6.964844 13.675781 7.28125 12.421875 7.839844 11.3125 C 9.1875 8.632812 11.960938 6.792969 15.164062 6.792969 C 17.375 6.792969 19.230469 7.605469 20.652344 8.929688 L 18.300781 11.285156 C 17.449219 10.46875 16.371094 10.058594 15.167969 10.058594 C 13.03125 10.058594 11.222656 11.5 10.578125 13.441406 C 10.414062 13.933594 10.320312 14.457031 10.320312 15 C 10.320312 15.542969 10.414062 16.066406 10.578125 16.558594 C 11.222656 18.5 13.03125 19.941406 15.164062 19.941406 C 16.269531 19.941406 17.207031 19.652344 17.941406 19.160156 C 18.808594 18.574219 19.386719 17.707031 19.578125 16.679688 L 15.164062 16.679688 L 15.164062 13.507812 L 22.886719 13.507812 C 22.984375 14.046875 23.035156 14.605469 23.035156 15.183594 C 23.035156 17.683594 22.140625 19.785156 20.589844 21.214844 Z M 20.589844 21.214844 "/>
</g>
</svg>
