<?xml version="1.0" encoding="UTF-8"?>
<svg xmlns="http://www.w3.org/2000/svg" xmlns:xlink="http://www.w3.org/1999/xlink" width="28px" height="28px" viewBox="0 0 28 28" version="1.1">
<g id="surface1">
<path style=" stroke:none;fill-rule:nonzero;fill:rgb(54.509807%,54.509807%,59.215689%);fill-opacity:1;" d="M 11.402344 13.082031 L 3.878906 13.082031 C 3.535156 13.082031 3.242188 12.796875 3.242188 12.449219 L 3.242188 4.925781 C 3.242188 4.578125 3.535156 4.289062 3.878906 4.289062 L 7.640625 4.289062 C 7.992188 4.289062 8.277344 4.578125 8.277344 4.925781 C 8.277344 5.273438 7.992188 5.5625 7.640625 5.5625 L 4.519531 5.5625 L 4.519531 11.8125 L 10.765625 11.8125 L 10.765625 4.925781 C 10.765625 4.578125 11.050781 4.289062 11.402344 4.289062 C 11.753906 4.289062 12.039062 4.578125 12.039062 4.925781 L 12.039062 12.449219 C 12.039062 12.796875 11.753906 13.082031 11.402344 13.082031 Z M 11.402344 24.074219 L 3.878906 24.074219 C 3.535156 24.074219 3.242188 23.789062 3.242188 23.4375 L 3.242188 15.921875 C 3.242188 15.574219 3.535156 15.289062 3.878906 15.289062 L 11.402344 15.289062 C 11.753906 15.289062 12.039062 15.574219 12.039062 15.921875 L 12.039062 23.445312 C 12.039062 23.792969 11.753906 24.074219 11.402344 24.074219 Z M 4.519531 22.800781 L 10.765625 22.800781 L 10.765625 16.554688 L 4.519531 16.554688 Z M 22.972656 24.074219 L 15.449219 24.074219 C 15.101562 24.074219 14.8125 23.789062 14.8125 23.4375 L 14.8125 15.921875 C 14.8125 15.574219 15.101562 15.289062 15.449219 15.289062 L 22.972656 15.289062 C 23.320312 15.289062 23.609375 15.574219 23.609375 15.921875 L 23.609375 23.445312 C 23.609375 23.792969 23.320312 24.074219 22.972656 24.074219 Z M 16.085938 22.800781 L 22.335938 22.800781 L 22.335938 16.554688 L 16.085938 16.554688 Z M 19.210938 12.507812 C 16.785156 12.507812 14.8125 10.535156 14.8125 8.105469 C 14.8125 5.683594 16.785156 3.710938 19.210938 3.710938 C 21.636719 3.710938 23.609375 5.683594 23.609375 8.105469 C 23.609375 10.535156 21.636719 12.507812 19.210938 12.507812 Z M 19.210938 4.980469 C 17.484375 4.980469 16.085938 6.382812 16.085938 8.105469 C 16.085938 9.832031 17.484375 11.230469 19.210938 11.230469 C 20.9375 11.230469 22.335938 9.832031 22.335938 8.105469 C 22.335938 6.382812 20.9375 4.980469 19.210938 4.980469 Z M 19.210938 4.980469 "/>
</g>
</svg>
