<?xml version="1.0" encoding="UTF-8"?>
<svg xmlns="http://www.w3.org/2000/svg" xmlns:xlink="http://www.w3.org/1999/xlink" width="28px" height="28px" viewBox="0 0 28 28" version="1.1">
<g id="surface1">
<path style=" stroke:none;fill-rule:nonzero;fill:rgb(54.509807%,54.509807%,59.215689%);fill-opacity:1;" d="M 14 25.667969 C 7.582031 25.667969 2.332031 20.417969 2.332031 14 C 2.332031 7.582031 7.582031 2.332031 14 2.332031 C 20.417969 2.332031 25.667969 7.582031 25.667969 14 C 25.667969 20.417969 20.417969 25.667969 14 25.667969 Z M 14 3.5 C 8.226562 3.5 3.5 8.226562 3.5 14 C 3.5 19.773438 8.226562 24.5 14 24.5 C 19.773438 24.5 24.5 19.773438 24.5 14 C 24.5 8.226562 19.773438 3.5 14 3.5 Z M 19.25 20.417969 C 18.898438 20.417969 18.667969 20.125 18.667969 19.832031 L 18.609375 19.832031 C 18.316406 17.558594 16.390625 15.75 14 15.75 C 11.609375 15.75 9.683594 17.558594 9.390625 19.832031 L 9.332031 19.832031 C 9.332031 20.183594 9.101562 20.417969 8.75 20.417969 C 8.457031 20.417969 8.167969 20.125 8.167969 19.832031 C 8.167969 19.714844 8.226562 19.660156 8.226562 19.542969 C 8.515625 17.558594 9.800781 15.867188 11.609375 15.109375 C 10.265625 14.292969 9.332031 12.773438 9.332031 11.082031 C 9.332031 8.515625 11.433594 6.417969 14 6.417969 C 16.566406 6.417969 18.667969 8.515625 18.667969 11.082031 C 18.667969 12.773438 17.734375 14.292969 16.390625 15.109375 C 18.140625 15.925781 19.425781 17.558594 19.773438 19.542969 C 19.832031 19.660156 19.890625 19.714844 19.890625 19.832031 C 19.832031 20.183594 19.601562 20.417969 19.25 20.417969 Z M 17.5 11.082031 C 17.5 9.160156 15.925781 7.582031 14 7.582031 C 12.074219 7.582031 10.5 9.160156 10.5 11.082031 C 10.5 13.007812 12.074219 14.582031 14 14.582031 C 15.925781 14.582031 17.5 13.007812 17.5 11.082031 Z M 17.5 11.082031 "/>
</g>
</svg>
