<?xml version="1.0" encoding="UTF-8"?>
<svg xmlns="http://www.w3.org/2000/svg" xmlns:xlink="http://www.w3.org/1999/xlink" width="23px" height="26px" viewBox="0 0 23 26" version="1.1">
<g id="surface1">
<path style=" stroke:none;fill-rule:nonzero;fill:rgb(85.882354%,85.882354%,85.882354%);fill-opacity:1;" d="M 18.207031 15.167969 L 18.207031 18.417969 L 21.082031 18.417969 L 21.082031 20.582031 L 18.207031 20.582031 L 18.207031 23.832031 L 16.292969 23.832031 L 16.292969 20.582031 L 13.417969 20.582031 L 13.417969 18.417969 L 16.292969 18.417969 L 16.292969 15.167969 Z M 19.398438 5.152344 C 21.554688 7.589844 21.65625 11.503906 19.625 14.074219 L 18.265625 12.539062 C 19.539062 10.886719 19.472656 8.296875 18.042969 6.683594 C 16.605469 5.0625 14.296875 4.988281 12.78125 6.519531 L 11.5 7.816406 L 10.222656 6.519531 C 8.714844 4.996094 6.417969 5.058594 4.976562 6.664062 C 3.535156 8.269531 3.445312 10.863281 4.773438 12.589844 L 12.851562 21.742188 L 11.5 23.277344 L 3.375 14.074219 C 1.34375 11.503906 1.441406 7.585938 3.601562 5.148438 C 5.761719 2.710938 9.226562 2.605469 11.5 4.90625 C 13.773438 2.605469 17.242188 2.714844 19.398438 5.152344 Z M 19.398438 5.152344 "/>
</g>
</svg>
