<?xml version="1.0" encoding="UTF-8"?>
<svg xmlns="http://www.w3.org/2000/svg" xmlns:xlink="http://www.w3.org/1999/xlink" width="28px" height="28px" viewBox="0 0 28 28" version="1.1">
<g id="surface1">
<path style=" stroke:none;fill-rule:nonzero;fill:rgb(54.509807%,54.509807%,59.215689%);fill-opacity:1;" d="M 14 24.65625 C 13.628906 24.65625 13.285156 24.542969 12.984375 24.300781 C 12.742188 24.101562 6.8125 19.515625 4.441406 15.785156 C 3.65625 14.558594 2.570312 12.886719 2.570312 10.515625 C 2.570312 6.558594 5.527344 3.34375 9.144531 3.34375 C 10.984375 3.34375 12.742188 4.1875 14 5.65625 C 15.242188 4.171875 16.984375 3.34375 18.84375 3.34375 C 22.472656 3.34375 25.414062 6.558594 25.414062 10.515625 C 25.414062 12.84375 24.398438 14.441406 23.570312 15.742188 L 23.542969 15.785156 C 21.171875 19.515625 15.242188 24.113281 15 24.300781 C 14.714844 24.527344 14.371094 24.65625 14 24.65625 Z M 9.144531 4.484375 C 6.144531 4.484375 3.714844 7.1875 3.714844 10.515625 C 3.714844 12.542969 4.644531 14 5.398438 15.171875 C 7.671875 18.730469 13.441406 23.214844 13.6875 23.398438 C 13.785156 23.472656 13.886719 23.515625 14 23.515625 C 14.113281 23.515625 14.214844 23.472656 14.3125 23.398438 C 14.558594 23.214844 20.328125 18.730469 22.601562 15.171875 L 22.628906 15.128906 C 23.398438 13.898438 24.285156 12.515625 24.285156 10.515625 C 24.285156 7.199219 21.84375 4.484375 18.855469 4.484375 C 17.214844 4.484375 15.6875 5.285156 14.65625 6.699219 L 14.484375 6.941406 C 14.371094 7.085938 14.199219 7.171875 14.027344 7.171875 C 13.855469 7.171875 13.671875 7.085938 13.570312 6.941406 L 13.398438 6.699219 C 12.3125 5.300781 10.769531 4.484375 9.144531 4.484375 Z M 9.144531 4.484375 "/>
</g>
</svg>
